<svg width="631" height="334" viewBox="0 0 631 334" fill="none" xmlns="http://www.w3.org/2000/svg">
<path fill-rule="evenodd" clip-rule="evenodd" d="M452.633 334L334.132 215.344V118.656L452.633 0H538.611L452.748 83.5002L366.885 167L452.748 250.5L538.611 334H452.633Z" fill="#37402B"/>
<path d="M570.42 0V136.488H430.075L398.699 167L430.074 197.512H570.42V334H631V30.633L630.992 30.512C630.992 26.3194 630.214 22.3599 628.662 18.6333C627.108 14.9066 624.933 11.6458 622.137 8.85084C619.341 6.05587 616.08 3.88199 612.351 2.32923C608.623 0.776468 604.662 8.0818e-05 600.468 8.0818e-05L570.42 0Z" fill="#37402B"/>
<path fill-rule="evenodd" clip-rule="evenodd" d="M334.132 334H273.55V258.375H60.5817V334H0V167C0 142.622 4.19412 120.184 12.5824 99.6876C20.9707 79.1911 32.621 61.5672 47.5334 46.8159C62.4458 32.0646 80.0767 20.5742 100.426 12.3445C120.775 4.11484 142.988 0 167.065 0H303.607C307.802 0 311.763 0.776388 315.491 2.32915C319.22 3.88191 322.481 6.05579 325.277 8.85076C328.073 11.6457 330.248 14.9065 331.802 18.6333C333.354 22.3598 334.132 26.3193 334.132 30.5119V118.656L316.323 136.488H273.55L273.55 60.5578H167.065C165.201 60.5578 161.24 60.8685 155.183 61.4896C149.28 61.9553 142.367 63.2752 134.445 65.4491C126.678 67.623 118.445 70.9614 109.746 75.4644C101.047 79.9675 93.0474 86.1785 85.7464 94.0976C78.4456 102.017 72.3875 111.954 67.5719 123.911C62.9117 135.712 60.5817 150.075 60.5817 167V197.817H273.55L273.55 197.512H316.323L334.132 215.344V334Z" fill="#37402B"/>
</svg>
