<svg width="1300" height="334" viewBox="0 0 1300 334" fill="none" xmlns="http://www.w3.org/2000/svg">
<path d="M1.83618 168.835C1.83618 260.054 68.6703 332.165 157.91 332.165C202.2 332.165 242.327 313.951 271.515 284.451L233.192 234.541C214.876 255.046 188.344 267.934 158.828 267.934C111.709 267.934 75.8108 235.086 65.1836 190.857H229.52C241.688 190.857 251.554 180.998 251.554 168.835V157.824C251.554 145.662 241.688 135.802 229.52 135.802H68.8559C81.8851 95.3268 114.355 66.066 158.828 66.066C184.94 66.066 208.716 76.1535 226.534 92.6759L266.79 44.9616C238.067 18.1725 199.855 1.83521 157.91 1.83521C68.6703 1.83521 1.83618 77.6172 1.83618 168.835Z" fill="#37402B" stroke="#37402B"/>
<path d="M306.638 167C306.638 258.219 376.515 332.165 462.712 332.165C518.672 332.165 567.755 300.996 595.303 254.17L546.812 218.385C529.978 248.046 499.013 267.934 463.599 267.934C410.216 267.934 366.94 222.745 366.94 167C366.94 111.256 410.216 66.066 463.599 66.066C497.531 66.066 527.38 84.324 544.627 111.945L593.079 76.1594C565.162 31.3814 517.198 1.83521 462.712 1.83521C376.515 1.83521 306.638 75.7821 306.638 167Z" fill="#37402B" stroke="#37402B"/>
<path d="M695.904 1.83521H683.051C669.867 1.83521 659.181 12.5164 659.181 25.6923V308.308C659.181 321.484 669.867 332.165 683.051 332.165H695.904C709.088 332.165 719.774 321.484 719.774 308.308V216.549C719.774 203.373 730.46 192.692 743.644 192.692H829.943C843.127 192.692 853.814 203.373 853.814 216.549V308.308C853.814 321.484 864.5 332.165 877.684 332.165H890.537C903.72 332.165 914.407 321.484 914.407 308.308V25.6923C914.407 12.5164 903.72 1.83521 890.537 1.83521H877.684C864.5 1.83521 853.814 12.5164 853.814 25.6923V106.44C853.814 119.616 843.127 130.297 829.943 130.297H749.153H743.644C730.46 130.297 719.774 119.616 719.774 106.44V104.604V25.6923C719.774 12.5164 709.088 1.83521 695.904 1.83521Z" fill="#37402B" stroke="#37402B"/>
<path fill-rule="evenodd" clip-rule="evenodd" d="M1298.16 167C1298.16 258.219 1225.82 332.165 1136.58 332.165C1047.34 332.165 975 258.219 975 167C975 75.7821 1047.34 1.83521 1136.58 1.83521C1225.82 1.83521 1298.16 75.7821 1298.16 167ZM1137.5 267.934C1192.77 267.934 1237.57 222.745 1237.57 167C1237.57 111.256 1192.77 66.066 1137.5 66.066C1082.23 66.066 1037.43 111.256 1037.43 167C1037.43 222.745 1082.23 267.934 1137.5 267.934Z" fill="#37402B" stroke="#37402B"/>
</svg>
