<svg width="492" height="164" viewBox="0 0 492 164" fill="none" xmlns="http://www.w3.org/2000/svg">
<path d="M58.5526 73.8964C58.5526 77.1565 57.7632 80.145 56.1842 82.8618C54.6053 85.5785 52.5 87.752 49.8684 89.382C47.2368 91.0121 44.3421 91.8271 41.1842 91.8271H17.5C14.3421 91.8271 11.4035 91.0121 8.68421 89.382C6.05263 87.752 3.94737 85.5785 2.36842 82.8618C0.789473 80.145 0 77.1565 0 73.8964V64.116C0 62.3951 0.570172 60.9467 1.71053 59.7691C2.93859 58.5016 4.38594 57.8674 6.05263 57.8674H9.73684C11.4035 57.8674 12.807 58.5016 13.9474 59.7691C15.1754 60.9467 15.7895 62.3951 15.7895 64.116V73.8964C15.7895 74.3489 15.9649 74.8023 16.3158 75.2548C16.6667 75.6173 17.0614 75.7981 17.5 75.7981H41.1842C41.6228 75.7981 42.0175 75.6173 42.3684 75.2548C42.7193 74.8023 42.8947 74.3489 42.8947 73.8964V6.24859C42.8947 4.43743 43.4649 2.94321 44.6053 1.76591C45.8333 0.588609 47.2807 0 48.9474 0H52.5C54.2544 0 55.7017 0.588609 56.8421 1.76591C57.9825 2.94321 58.5526 4.43743 58.5526 6.24859V73.8964ZM127.812 73.8964C127.812 77.1565 127.022 80.145 125.443 82.8618C123.864 85.5785 121.759 87.752 119.127 89.382C116.496 91.0121 113.601 91.8271 110.443 91.8271H86.759C83.6011 91.8271 80.662 91.0121 77.9433 89.382C75.3115 87.752 73.2063 85.5785 71.6273 82.8618C70.0484 80.145 69.2589 77.1565 69.2589 73.8964V6.24859C69.2589 4.43743 69.829 2.94321 70.9694 1.76591C72.1974 0.588609 73.6448 0 75.3115 0H78.9959C80.662 0 82.0658 0.588609 83.2064 1.76591C84.4342 2.94321 85.0485 4.43743 85.0485 6.24859V73.8964C85.0485 74.3489 85.2237 74.8023 85.5748 75.2548C85.9252 75.6173 86.3199 75.7981 86.759 75.7981H110.443C110.882 75.7981 111.276 75.6173 111.627 75.2548C111.978 74.8023 112.154 74.3489 112.154 73.8964V6.24859C112.154 4.43743 112.724 2.94321 113.864 1.76591C115.092 0.588609 116.539 0 118.206 0H121.759C123.513 0 124.961 0.588609 126.101 1.76591C127.241 2.94321 127.812 4.43743 127.812 6.24859V73.8964ZM198.781 73.8964C198.781 77.1565 197.992 80.145 196.413 82.8618C194.834 85.5785 192.729 87.752 190.097 89.382C187.465 91.0121 184.571 91.8271 181.413 91.8271H156.15C152.992 91.8271 150.053 91.0121 147.334 89.382C144.702 87.752 142.597 85.5785 141.018 82.8618C139.439 80.145 138.65 77.1565 138.65 73.8964V69.8212C138.65 68.1003 139.22 66.6519 140.36 65.4744C141.588 64.2068 143.035 63.5726 144.702 63.5726H148.387C149.965 63.5726 151.325 64.2068 152.465 65.4744C153.693 66.6519 154.308 68.1003 154.308 69.8212V73.8964C154.308 74.3489 154.483 74.8023 154.834 75.2548C155.272 75.6173 155.711 75.7981 156.15 75.7981H181.413C181.851 75.7981 182.246 75.6173 182.597 75.2548C182.947 74.8023 183.123 74.3489 183.123 73.8964V61.535C183.123 60.5392 182.684 59.905 181.808 59.6333L150.229 47.4078C146.72 46.1402 143.913 43.921 141.808 40.7517C139.702 37.5824 138.65 34.0956 138.65 30.2921V18.0666C138.65 14.7159 139.439 11.6822 141.018 8.96537C142.597 6.2486 144.702 4.07517 147.334 2.44511C150.053 0.815038 152.992 0 156.15 0H181.413C184.571 0 187.465 0.815038 190.097 2.44511C192.729 4.07517 194.834 6.2486 196.413 8.96537C197.992 11.6822 198.781 14.7159 198.781 18.0666V21.7342C198.781 23.4551 198.167 24.9035 196.939 26.0811C195.799 27.2586 194.395 27.847 192.729 27.847H189.176C187.509 27.847 186.062 27.2586 184.834 26.0811C183.693 24.9035 183.123 23.4551 183.123 21.7342V18.0666C183.123 16.7988 182.553 16.1648 181.413 16.1648H156.15C155.711 16.1648 155.272 16.3459 154.834 16.7082C154.483 17.0705 154.308 17.5232 154.308 18.0666V30.2921C154.308 31.3788 154.746 32.058 155.623 32.3297L187.334 44.5552C190.755 45.8227 193.518 48.042 195.623 51.2113C197.729 54.3806 198.781 57.8224 198.781 61.535V73.8964ZM268.132 9.91624C268.132 11.6369 267.561 13.1311 266.421 14.3989C265.28 15.5762 263.833 16.1648 262.079 16.1648H248.263C247.123 16.1648 246.553 16.7534 246.553 17.9307V85.5785C246.553 87.2994 245.938 88.7937 244.711 90.0612C243.57 91.2388 242.166 91.8271 240.5 91.8271H237.079C235.412 91.8271 233.965 91.2388 232.737 90.0612C231.596 88.7937 231.026 87.2994 231.026 85.5785V17.9307C231.026 16.7534 230.456 16.1648 229.316 16.1648H215.368C213.701 16.1648 212.254 15.5762 211.026 14.3989C209.886 13.1311 209.316 11.6369 209.316 9.91624V6.24859C209.316 4.43743 209.886 2.94321 211.026 1.76591C212.254 0.588609 213.701 0 215.368 0H262.079C263.833 0 265.28 0.588609 266.421 1.76591C267.561 2.94321 268.132 4.43743 268.132 6.24859V9.91624ZM294.495 85.5785C294.495 87.2994 293.882 88.7937 292.653 90.0612C291.513 91.2388 290.109 91.8271 288.442 91.8271H284.89C283.224 91.8271 281.776 91.2388 280.548 90.0612C279.408 88.7937 278.837 87.2994 278.837 85.5785V6.24859C278.837 4.43743 279.408 2.94321 280.548 1.76591C281.776 0.588609 283.224 0 284.89 0H288.442C290.109 0 291.513 0.588609 292.653 1.76591C293.882 2.94321 294.495 4.43743 294.495 6.24859V85.5785ZM363.729 73.8964C363.729 77.1565 362.939 80.145 361.36 82.8618C359.781 85.5785 357.676 87.752 355.044 89.382C352.413 91.0121 349.518 91.8271 346.36 91.8271H322.676C319.518 91.8271 316.579 91.0121 313.86 89.382C311.229 87.752 309.123 85.5785 307.544 82.8618C305.965 80.145 305.176 77.1565 305.176 73.8964V18.0666C305.176 14.7159 305.965 11.6822 307.544 8.96537C309.123 6.2486 311.229 4.07517 313.86 2.44511C316.579 0.815038 319.518 0 322.676 0H346.36C349.518 0 352.413 0.815038 355.044 2.44511C357.676 4.07517 359.781 6.2486 361.36 8.96537C362.939 11.6822 363.729 14.7159 363.729 18.0666V21.7342C363.729 23.4551 363.158 24.9035 362.018 26.0811C360.877 27.2586 359.43 27.847 357.676 27.847H354.123C352.456 27.847 351.009 27.2586 349.781 26.0811C348.641 24.9035 348.071 23.4551 348.071 21.7342V18.0666C348.071 16.7988 347.5 16.1648 346.36 16.1648H322.676C321.535 16.1648 320.965 16.7988 320.965 18.0666V73.8964C320.965 74.3489 321.141 74.8023 321.492 75.2548C321.842 75.6173 322.237 75.7981 322.676 75.7981H346.36C346.799 75.7981 347.193 75.6173 347.544 75.2548C347.895 74.8023 348.071 74.3489 348.071 73.8964V69.8212C348.071 68.1003 348.641 66.6519 349.781 65.4744C351.009 64.2068 352.456 63.5726 354.123 63.5726H357.676C359.43 63.5726 360.877 64.2068 362.018 65.4744C363.158 66.6519 363.729 68.1003 363.729 69.8212V73.8964ZM431.54 85.5785C431.54 87.2994 430.926 88.7937 429.698 90.0612C428.558 91.2388 427.198 91.8271 425.619 91.8271H380.356C378.777 91.8271 377.373 91.2388 376.146 90.0612C375.005 88.7937 374.435 87.2994 374.435 85.5785V6.24859C374.435 4.43743 375.005 2.94321 376.146 1.76591C377.373 0.588609 378.777 0 380.356 0H425.619C427.198 0 428.558 0.588609 429.698 1.76591C430.926 2.94321 431.54 4.43743 431.54 6.24859V9.91624C431.54 11.6369 430.926 13.1311 429.698 14.3989C428.558 15.5762 427.198 16.1648 425.619 16.1648H391.672C390.619 16.1648 390.093 16.7534 390.093 17.9307V35.9973C390.093 37.2649 390.619 37.8991 391.672 37.8991H420.882C422.637 37.8991 424.084 38.4874 425.225 39.665C426.364 40.8425 426.935 42.2909 426.935 44.0118V47.8153C426.935 49.5362 426.364 51.0304 425.225 52.298C424.084 53.4756 422.637 54.0639 420.882 54.0639H391.672C390.619 54.0639 390.093 54.6073 390.093 55.694V74.0322C390.093 75.2098 390.619 75.7981 391.672 75.7981H425.619C427.198 75.7981 428.558 76.3865 429.698 77.564C430.926 78.7416 431.54 80.2358 431.54 82.0467V85.5785Z" fill="#F4FFAC"/>
<path d="M297.106 163.142H249.482C248.732 163.142 248.037 163.004 247.394 162.728C246.751 162.451 246.19 162.078 245.708 161.608C245.252 161.111 244.891 160.531 244.623 159.868C244.356 159.204 244.222 158.486 244.222 157.712V103.696H254.662V152.364H297.106V163.142ZM351.876 138.85H318.909V127.989H351.876V138.85ZM356.574 163.142H318.909C317.464 163.142 315.885 162.88 314.172 162.354C312.458 161.83 310.865 160.973 309.393 159.784C307.947 158.569 306.729 157.007 305.739 155.1C304.775 153.166 304.293 150.802 304.293 148.011V109.127C304.293 108.38 304.427 107.676 304.695 107.013C304.963 106.349 305.324 105.769 305.779 105.271C306.26 104.774 306.823 104.387 307.465 104.111C308.108 103.834 308.804 103.696 309.553 103.696H356.574V114.475H314.733V148.011C314.733 149.421 315.095 150.498 315.818 151.244C316.54 151.991 317.598 152.364 318.99 152.364H356.574V163.142ZM424.236 158.541C424.236 159.315 424.088 160.033 423.793 160.696C423.526 161.359 423.151 161.94 422.669 162.438C422.214 162.907 421.666 163.281 421.023 163.557C420.38 163.833 419.698 163.972 418.975 163.972C418.333 163.972 417.676 163.847 417.007 163.598C416.365 163.349 415.789 162.949 415.281 162.396L377.134 121.273V163.142H366.694V108.297C366.694 107.192 366.988 106.197 367.577 105.313C368.193 104.401 368.969 103.724 369.906 103.281C370.897 102.867 371.913 102.77 372.958 102.991C374.002 103.185 374.898 103.682 375.648 104.484L413.795 145.566V103.696H424.236V158.541ZM491.736 145.649C491.736 147.776 491.468 149.697 490.932 151.411C490.424 153.096 489.741 154.589 488.885 155.888C488.028 157.187 487.024 158.292 485.873 159.204C484.722 160.116 483.53 160.862 482.299 161.443C481.068 162.023 479.81 162.451 478.524 162.728C477.266 163.004 476.075 163.142 474.95 163.142H434.676V152.364H474.95C476.959 152.364 478.511 151.756 479.609 150.54C480.733 149.324 481.295 147.693 481.295 145.649C481.295 144.654 481.148 143.741 480.853 142.912C480.559 142.083 480.13 141.365 479.569 140.757C479.033 140.149 478.364 139.679 477.561 139.348C476.784 139.016 475.914 138.85 474.95 138.85H450.938C449.251 138.85 447.431 138.546 445.477 137.937C443.523 137.302 441.703 136.294 440.016 134.912C438.357 133.529 436.964 131.719 435.84 129.481C434.742 127.243 434.194 124.506 434.194 121.273C434.194 118.039 434.742 115.318 435.84 113.106C436.964 110.868 438.357 109.058 440.016 107.676C441.703 106.266 443.523 105.258 445.477 104.65C447.431 104.014 449.251 103.696 450.938 103.696H486.475V114.475H450.938C448.957 114.475 447.404 115.096 446.28 116.34C445.183 117.584 444.634 119.228 444.634 121.273C444.634 123.346 445.183 124.99 446.28 126.206C447.404 127.395 448.957 127.989 450.938 127.989H474.95H475.031C476.155 128.016 477.347 128.182 478.605 128.486C479.863 128.762 481.107 129.205 482.339 129.812C483.598 130.42 484.788 131.195 485.913 132.134C487.038 133.046 488.028 134.152 488.885 135.451C489.768 136.75 490.463 138.242 490.973 139.927C491.481 141.613 491.736 143.52 491.736 145.649Z" fill="#F4FFAC"/>
</svg>
