<svg width="492" height="165" viewBox="0 0 492 165" fill="none" xmlns="http://www.w3.org/2000/svg">
<path d="M58.8153 74.4823C58.8153 77.7425 58.0259 80.7309 56.4469 83.4477C54.868 86.1645 52.7627 88.3379 50.1311 89.968C47.4995 91.598 44.6048 92.4131 41.4469 92.4131H17.7627C14.6048 92.4131 11.6662 91.598 8.94691 89.968C6.31533 88.3379 4.21006 86.1645 2.63112 83.4477C1.05217 80.7309 0.262695 77.7425 0.262695 74.4823V64.7019C0.262695 62.981 0.832868 61.5326 1.97322 60.3551C3.20129 59.0875 4.64863 58.4533 6.31533 58.4533H9.99954C11.6662 58.4533 13.0697 59.0875 14.2101 60.3551C15.4381 61.5326 16.0522 62.981 16.0522 64.7019V74.4823C16.0522 74.9348 16.2276 75.3882 16.5785 75.8407C16.9294 76.2032 17.3241 76.3841 17.7627 76.3841H41.4469C41.8855 76.3841 42.2802 76.2032 42.6311 75.8407C42.982 75.3882 43.1574 74.9348 43.1574 74.4823V6.83453C43.1574 5.02337 43.7276 3.52914 44.868 2.35185C46.096 1.17455 47.5434 0.585938 49.2101 0.585938H52.7627C54.5171 0.585938 55.9644 1.17455 57.1048 2.35185C58.2452 3.52914 58.8153 5.02337 58.8153 6.83453V74.4823ZM128.074 74.4823C128.074 77.7425 127.285 80.7309 125.706 83.4477C124.127 86.1645 122.022 88.3379 119.39 89.968C116.759 91.598 113.864 92.4131 110.706 92.4131H87.0217C83.8638 92.4131 80.9247 91.598 78.2059 89.968C75.5742 88.3379 73.4689 86.1645 71.89 83.4477C70.3111 80.7309 69.5216 77.7425 69.5216 74.4823V6.83453C69.5216 5.02337 70.0917 3.52914 71.2321 2.35185C72.4601 1.17455 73.9075 0.585938 75.5742 0.585938H79.2586C80.9247 0.585938 82.3285 1.17455 83.4691 2.35185C84.6969 3.52914 85.3112 5.02337 85.3112 6.83453V74.4823C85.3112 74.9348 85.4864 75.3882 85.8375 75.8407C86.1879 76.2032 86.5826 76.3841 87.0217 76.3841H110.706C111.144 76.3841 111.539 76.2032 111.89 75.8407C112.241 75.3882 112.416 74.9348 112.416 74.4823V6.83453C112.416 5.02337 112.986 3.52914 114.127 2.35185C115.355 1.17455 116.802 0.585938 118.469 0.585938H122.022C123.776 0.585938 125.223 1.17455 126.364 2.35185C127.504 3.52914 128.074 5.02337 128.074 6.83453V74.4823ZM199.044 74.4823C199.044 77.7425 198.254 80.7309 196.676 83.4477C195.097 86.1645 192.991 88.3379 190.36 89.968C187.728 91.598 184.833 92.4131 181.676 92.4131H156.412C153.254 92.4131 150.315 91.598 147.597 89.968C144.965 88.3379 142.86 86.1645 141.281 83.4477C139.702 80.7309 138.912 77.7425 138.912 74.4823V70.4072C138.912 68.6862 139.482 67.2379 140.623 66.0603C141.851 64.7928 143.298 64.1586 144.965 64.1586H148.649C150.228 64.1586 151.588 64.7928 152.728 66.0603C153.956 67.2379 154.57 68.6862 154.57 70.4072V74.4823C154.57 74.9348 154.745 75.3882 155.097 75.8407C155.535 76.2032 155.973 76.3841 156.412 76.3841H181.676C182.114 76.3841 182.509 76.2032 182.86 75.8407C183.21 75.3882 183.386 74.9348 183.386 74.4823V62.121C183.386 61.1251 182.947 60.4909 182.07 60.2192L150.491 47.9937C146.982 46.7262 144.176 44.5069 142.07 41.3376C139.965 38.1683 138.912 34.6815 138.912 30.878V18.6525C138.912 15.3018 139.702 12.2681 141.281 9.55131C142.86 6.83453 144.965 4.66111 147.597 3.03104C150.315 1.40098 153.254 0.585938 156.412 0.585938H181.676C184.833 0.585938 187.728 1.40098 190.36 3.03104C192.991 4.66111 195.097 6.83453 196.676 9.55131C198.254 12.2681 199.044 15.3018 199.044 18.6525V22.3202C199.044 24.0411 198.43 25.4895 197.202 26.667C196.061 27.8446 194.657 28.4329 192.991 28.4329H189.439C187.772 28.4329 186.324 27.8446 185.097 26.667C183.956 25.4895 183.386 24.0411 183.386 22.3202V18.6525C183.386 17.3847 182.815 16.7508 181.676 16.7508H156.412C155.973 16.7508 155.535 16.9319 155.097 17.2941C154.745 17.6564 154.57 18.1092 154.57 18.6525V30.878C154.57 31.9647 155.009 32.6439 155.886 32.9156L187.597 45.1411C191.018 46.4087 193.781 48.6279 195.886 51.7972C197.991 54.9665 199.044 58.4083 199.044 62.121V74.4823ZM268.394 10.5022C268.394 12.2228 267.824 13.7171 266.684 14.9849C265.543 16.1622 264.096 16.7508 262.342 16.7508H248.526C247.385 16.7508 246.815 17.3394 246.815 18.5167V86.1645C246.815 87.8854 246.201 89.3796 244.973 90.6472C243.833 91.8247 242.429 92.4131 240.763 92.4131H237.342C235.675 92.4131 234.227 91.8247 233 90.6472C231.859 89.3796 231.289 87.8854 231.289 86.1645V18.5167C231.289 17.3394 230.718 16.7508 229.578 16.7508H215.631C213.964 16.7508 212.517 16.1622 211.289 14.9849C210.148 13.7171 209.579 12.2228 209.579 10.5022V6.83453C209.579 5.02337 210.148 3.52914 211.289 2.35185C212.517 1.17455 213.964 0.585938 215.631 0.585938H262.342C264.096 0.585938 265.543 1.17455 266.684 2.35185C267.824 3.52914 268.394 5.02337 268.394 6.83453V10.5022ZM294.758 86.1645C294.758 87.8854 294.144 89.3796 292.916 90.6472C291.776 91.8247 290.372 92.4131 288.705 92.4131H285.152C283.486 92.4131 282.039 91.8247 280.81 90.6472C279.671 89.3796 279.1 87.8854 279.1 86.1645V6.83453C279.1 5.02337 279.671 3.52914 280.81 2.35185C282.039 1.17455 283.486 0.585938 285.152 0.585938H288.705C290.372 0.585938 291.776 1.17455 292.916 2.35185C294.144 3.52914 294.758 5.02337 294.758 6.83453V86.1645ZM363.991 74.4823C363.991 77.7425 363.202 80.7309 361.623 83.4477C360.044 86.1645 357.939 88.3379 355.307 89.968C352.676 91.598 349.781 92.4131 346.623 92.4131H322.939C319.781 92.4131 316.842 91.598 314.123 89.968C311.491 88.3379 309.386 86.1645 307.807 83.4477C306.228 80.7309 305.439 77.7425 305.439 74.4823V18.6525C305.439 15.3018 306.228 12.2681 307.807 9.55131C309.386 6.83453 311.491 4.66111 314.123 3.03104C316.842 1.40098 319.781 0.585938 322.939 0.585938H346.623C349.781 0.585938 352.676 1.40098 355.307 3.03104C357.939 4.66111 360.044 6.83453 361.623 9.55131C363.202 12.2681 363.991 15.3018 363.991 18.6525V22.3202C363.991 24.0411 363.421 25.4895 362.281 26.667C361.14 27.8446 359.693 28.4329 357.939 28.4329H354.386C352.719 28.4329 351.272 27.8446 350.044 26.667C348.903 25.4895 348.333 24.0411 348.333 22.3202V18.6525C348.333 17.3847 347.763 16.7508 346.623 16.7508H322.939C321.798 16.7508 321.228 17.3847 321.228 18.6525V74.4823C321.228 74.9348 321.403 75.3882 321.754 75.8407C322.105 76.2032 322.5 76.3841 322.939 76.3841H346.623C347.061 76.3841 347.456 76.2032 347.807 75.8407C348.157 75.3882 348.333 74.9348 348.333 74.4823V70.4072C348.333 68.6862 348.903 67.2379 350.044 66.0603C351.272 64.7928 352.719 64.1586 354.386 64.1586H357.939C359.693 64.1586 361.14 64.7928 362.281 66.0603C363.421 67.2379 363.991 68.6862 363.991 70.4072V74.4823ZM431.803 86.1645C431.803 87.8854 431.189 89.3796 429.961 90.6472C428.82 91.8247 427.461 92.4131 425.882 92.4131H380.619C379.04 92.4131 377.636 91.8247 376.408 90.6472C375.268 89.3796 374.698 87.8854 374.698 86.1645V6.83453C374.698 5.02337 375.268 3.52914 376.408 2.35185C377.636 1.17455 379.04 0.585938 380.619 0.585938H425.882C427.461 0.585938 428.82 1.17455 429.961 2.35185C431.189 3.52914 431.803 5.02337 431.803 6.83453V10.5022C431.803 12.2228 431.189 13.7171 429.961 14.9849C428.82 16.1622 427.461 16.7508 425.882 16.7508H391.935C390.882 16.7508 390.356 17.3394 390.356 18.5167V36.5833C390.356 37.8508 390.882 38.485 391.935 38.485H421.145C422.899 38.485 424.347 39.0734 425.487 40.2509C426.627 41.4285 427.198 42.8768 427.198 44.5978V48.4012C427.198 50.1222 426.627 51.6164 425.487 52.8839C424.347 54.0615 422.899 54.6498 421.145 54.6498H391.935C390.882 54.6498 390.356 55.1932 390.356 56.2799V74.6182C390.356 75.7957 390.882 76.3841 391.935 76.3841H425.882C427.461 76.3841 428.82 76.9724 429.961 78.15C431.189 79.3275 431.803 80.8217 431.803 82.6327V86.1645Z" fill="#37402B"/>
<path d="M297.368 163.728H249.745C248.995 163.728 248.299 163.59 247.656 163.314C247.014 163.037 246.452 162.664 245.97 162.194C245.515 161.697 245.154 161.117 244.886 160.454C244.618 159.79 244.484 159.071 244.484 158.298V104.282H254.924V152.95H297.368V163.728ZM352.139 139.436H319.172V128.575H352.139V139.436ZM356.837 163.728H319.172C317.727 163.728 316.147 163.466 314.434 162.94C312.72 162.416 311.127 161.559 309.655 160.37C308.21 159.155 306.992 157.593 306.002 155.686C305.038 153.752 304.556 151.388 304.556 148.597V109.713C304.556 108.966 304.69 108.262 304.957 107.599C305.225 106.935 305.586 106.355 306.042 105.857C306.523 105.36 307.086 104.973 307.728 104.697C308.371 104.42 309.067 104.282 309.816 104.282H356.837V115.06H314.996V148.597C314.996 150.007 315.358 151.084 316.081 151.83C316.803 152.577 317.86 152.95 319.252 152.95H356.837V163.728ZM424.498 159.127C424.498 159.901 424.35 160.619 424.056 161.282C423.789 161.945 423.414 162.526 422.932 163.024C422.477 163.493 421.928 163.867 421.285 164.143C420.643 164.419 419.961 164.558 419.238 164.558C418.595 164.558 417.939 164.433 417.27 164.184C416.627 163.935 416.052 163.535 415.544 162.982L377.396 121.859V163.728H366.956V108.883C366.956 107.778 367.251 106.783 367.84 105.899C368.456 104.987 369.232 104.31 370.169 103.867C371.16 103.453 372.176 103.356 373.22 103.577C374.265 103.771 375.161 104.268 375.911 105.07L414.058 146.151V104.282H424.498V159.127ZM491.998 146.235C491.998 148.362 491.73 150.283 491.195 151.997C490.687 153.682 490.003 155.175 489.147 156.474C488.29 157.772 487.286 158.878 486.136 159.79C484.984 160.702 483.793 161.448 482.562 162.028C481.331 162.609 480.072 163.037 478.787 163.314C477.529 163.59 476.338 163.728 475.213 163.728H434.938V152.95H475.213C477.221 152.95 478.774 152.342 479.872 151.126C480.996 149.91 481.558 148.279 481.558 146.235C481.558 145.24 481.41 144.327 481.116 143.498C480.822 142.669 480.393 141.951 479.831 141.343C479.296 140.735 478.627 140.265 477.823 139.933C477.047 139.602 476.177 139.436 475.213 139.436H451.201C449.514 139.436 447.694 139.132 445.74 138.523C443.785 137.888 441.965 136.88 440.279 135.497C438.619 134.115 437.227 132.305 436.103 130.067C435.005 127.829 434.456 125.092 434.456 121.859C434.456 118.625 435.005 115.904 436.103 113.692C437.227 111.454 438.619 109.644 440.279 108.262C441.965 106.852 443.785 105.844 445.74 105.236C447.694 104.6 449.514 104.282 451.201 104.282H486.738V115.06H451.201C449.22 115.06 447.667 115.682 446.543 116.926C445.446 118.17 444.896 119.814 444.896 121.859C444.896 123.932 445.446 125.576 446.543 126.792C447.667 127.98 449.22 128.575 451.201 128.575H475.213H475.294C476.418 128.602 477.609 128.768 478.868 129.072C480.126 129.348 481.37 129.791 482.602 130.398C483.86 131.006 485.051 131.781 486.176 132.72C487.3 133.632 488.29 134.738 489.147 136.037C490.03 137.336 490.726 138.828 491.235 140.513C491.743 142.199 491.998 144.106 491.998 146.235Z" fill="#37402B"/>
</svg>
